<svg width="28" height="27" viewBox="0 0 28 27" fill="none" xmlns="http://www.w3.org/2000/svg">
<path d="M6.48486 24.236C6.48486 25.7629 7.72742 27.0055 9.25431 27.0055C10.7812 27.0055 12.0238 25.7629 12.0238 24.236C12.0238 22.7091 10.7812 21.4666 9.25431 21.4666C7.72742 21.4666 6.48486 22.7091 6.48486 24.236ZM10.1775 24.236C10.1775 24.7447 9.76296 25.1592 9.25431 25.1592C8.74565 25.1592 8.33116 24.7447 8.33116 24.236C8.33116 23.7274 8.74565 23.3129 9.25431 23.3129C9.76296 23.3129 10.1775 23.7274 10.1775 24.236Z" fill="#F4C22F"/>
<path d="M23.1014 24.236C23.1014 22.7091 21.8588 21.4666 20.3319 21.4666C18.8051 21.4666 17.5625 22.7091 17.5625 24.236C17.5625 25.7629 18.8051 27.0055 20.3319 27.0055C21.8588 27.0055 23.1014 25.7629 23.1014 24.236ZM19.4088 24.236C19.4088 23.7274 19.8233 23.3129 20.3319 23.3129C20.8406 23.3129 21.2551 23.7274 21.2551 24.236C21.2551 24.7447 20.8406 25.1592 20.3319 25.1592C19.8233 25.1592 19.4088 24.7447 19.4088 24.236Z" fill="#F4C22F"/>
<path d="M3.80756 2.08049C3.92203 3.17073 5.19597 15.2713 5.3926 17.1407C5.54123 18.5541 6.72563 19.6203 8.14728 19.6203H22.5327C23.8297 19.6203 24.9689 18.699 25.2412 17.4306L27.4586 7.08303C27.5758 6.53468 27.4411 5.97063 27.0884 5.53583C26.7358 5.1001 26.2124 4.84993 25.652 4.84993H5.95572L5.55692 1.06133C5.50707 0.590527 5.11104 0.234192 4.63839 0.234192H1.86895C1.35937 0.234192 0.945801 0.647762 0.945801 1.15734C0.945801 1.66692 1.35937 2.08049 1.86895 2.08049H3.80756ZM25.652 6.69623L23.4355 17.0438C23.3441 17.4666 22.9647 17.774 22.5318 17.774H8.14728C7.67278 17.774 7.2786 17.4186 7.22875 16.9478L6.14959 6.69623H25.652Z" fill="#F4C22F"/>
</svg>
